<?xml version="1.0" standalone="no"?>
<!DOCTYPE svg PUBLIC "-//W3C//DTD SVG 20010904//EN"
 "http://www.w3.org/TR/2001/REC-SVG-20010904/DTD/svg10.dtd">
<svg version="1.0" xmlns="http://www.w3.org/2000/svg"
 width="1258.000000pt" height="1258.000000pt" viewBox="0 0 1258.000000 1258.000000"
 preserveAspectRatio="xMidYMid meet">
<metadata>
Created by potrace 1.14, written by Peter Selinger 2001-2017
</metadata>
<g transform="translate(0.000000,1258.000000) scale(0.100000,-0.100000)"
fill="#000000" stroke="none">
<path d="M7207 12484 c-3 -4 -20 -8 -37 -10 -58 -7 -134 -66 -142 -110 -1 -10
-10 -25 -18 -32 -10 -9 -10 -11 -2 -7 11 6 12 3 3 -14 -7 -11 -9 -21 -5 -21 3
0 1 -6 -5 -14 -8 -10 -9 -16 -1 -19 6 -3 6 -5 -1 -3 -7 1 -13 10 -15 19 -1 9
1 15 5 12 4 -2 8 2 8 10 0 11 -4 12 -14 4 -7 -6 -10 -15 -7 -20 3 -5 0 -9 -7
-9 -7 0 -10 -3 -6 -6 3 -4 -3 -14 -15 -24 -18 -14 -21 -27 -21 -89 1 -46 5
-76 13 -81 6 -4 11 -9 9 -11 -4 -8 14 -55 36 -89 27 -45 38 -73 24 -65 -6 4
-13 -2 -16 -14 -3 -11 -10 -18 -16 -14 -6 4 -8 -2 -4 -16 4 -17 0 -24 -16 -31
-12 -5 -19 -9 -14 -9 4 -1 -1 -9 -10 -19 -10 -11 -22 -16 -28 -13 -5 2 -4 -3
4 -12 12 -15 12 -17 -2 -11 -19 7 -44 -32 -24 -39 6 -3 2 -6 -10 -6 -14 -1
-26 -12 -35 -31 -7 -16 -17 -30 -23 -30 -6 0 -16 -10 -24 -22 -13 -22 -13 -23
6 -5 11 9 23 17 28 17 5 0 -6 -11 -25 -25 -27 -20 -46 -25 -92 -25 -32 0 -58
-3 -58 -7 0 -5 -15 -8 -32 -7 -18 0 -42 -6 -53 -13 -11 -7 -29 -13 -42 -13
-12 0 -24 -4 -28 -9 -3 -5 -19 -12 -35 -16 -17 -4 -30 -10 -30 -15 0 -4 -13
-13 -29 -20 -16 -6 -37 -21 -48 -33 -11 -12 -36 -35 -56 -52 -20 -16 -37 -36
-37 -43 0 -7 -4 -11 -8 -8 -12 7 -45 -63 -47 -100 -1 -17 -4 -35 -7 -40 -3 -5
-3 -18 -1 -29 2 -11 5 -29 7 -40 6 -41 20 -82 44 -130 14 -27 25 -53 24 -57
-1 -5 2 -8 8 -8 5 0 10 -9 10 -20 0 -16 -4 -18 -22 -12 -13 5 -34 7 -48 6 -14
-1 -30 2 -37 8 -7 6 -14 5 -18 -2 -5 -8 -11 -8 -21 1 -10 8 -14 8 -14 0 0 -6
-5 -11 -11 -11 -5 0 -8 4 -5 8 3 5 -13 9 -35 11 -31 1 -39 -1 -34 -11 4 -7 0
-5 -8 5 -8 9 -17 17 -21 17 -3 0 -6 -8 -6 -17 0 -15 -2 -16 -10 -3 -6 10 -27
15 -62 15 -29 1 -59 4 -66 8 -7 5 -12 3 -12 -5 0 -8 -3 -9 -8 -3 -4 6 -16 10
-27 9 -11 0 -25 4 -32 8 -7 6 -14 4 -19 -3 -5 -8 -3 -9 6 -4 8 5 11 4 6 -3 -4
-6 -13 -9 -21 -6 -8 4 -12 10 -9 15 3 5 -6 5 -20 0 -18 -8 -28 -6 -37 5 -10
13 -14 12 -31 -3 -18 -16 -19 -16 -12 1 6 16 4 17 -14 7 -14 -8 -23 -8 -27 -1
-5 8 -11 7 -21 -1 -10 -8 -18 -8 -27 -1 -6 6 -33 10 -57 9 -25 0 -51 2 -57 6
-6 4 -19 0 -28 -9 -15 -16 -16 -16 -13 1 2 14 -4 18 -29 20 -18 1 -30 -2 -27
-7 3 -4 0 -8 -5 -8 -6 0 -11 4 -11 8 0 4 -24 8 -52 7 -29 0 -61 3 -70 8 -12 5
-18 4 -18 -4 0 -9 -3 -9 -14 0 -10 9 -16 9 -21 1 -5 -8 -11 -8 -20 0 -8 7 -19
9 -24 6 -5 -4 -13 -2 -16 4 -5 8 -11 7 -21 -1 -8 -6 -14 -7 -14 -2 0 5 -18 9
-40 9 -22 -1 -40 1 -40 5 0 4 -27 6 -61 5 -33 -1 -62 1 -64 4 -3 4 -70 4 -70
0 0 -1 -10 -3 -22 -4 -18 -2 -20 0 -12 10 9 10 5 11 -18 5 -18 -5 -37 -5 -48
1 -13 8 -16 7 -11 -1 4 -6 2 -11 -3 -11 -6 0 -11 8 -11 18 0 13 -2 14 -9 3 -5
-7 -14 -10 -20 -7 -6 4 -11 2 -11 -3 0 -6 -4 -11 -10 -11 -5 0 -7 6 -5 13 4 9
-20 12 -100 12 -58 0 -105 3 -105 8 0 4 -5 7 -11 7 -5 0 -7 -5 -3 -11 4 -7 -1
-7 -16 1 -12 6 -24 9 -27 6 -3 -2 -16 -1 -29 4 -14 6 -26 6 -29 -1 -4 -5 -12
-6 -18 -2 -7 4 -29 8 -49 9 -21 0 -41 3 -44 7 -4 4 -13 2 -20 -4 -8 -6 -14 -6
-18 0 -4 5 -18 8 -31 5 -16 -3 -25 0 -25 8 0 9 -3 8 -10 -2 -7 -11 -10 -11
-10 -2 0 8 -5 10 -12 5 -20 -12 -38 -12 -38 -1 0 6 -6 5 -15 -2 -8 -7 -15 -8
-15 -3 0 5 -16 10 -36 11 -26 2 -34 -1 -29 -10 4 -7 1 -6 -7 2 -9 10 -32 15
-71 15 -33 0 -61 3 -63 7 -3 4 -16 3 -30 -2 -14 -6 -23 -6 -20 -2 3 5 -14 10
-37 11 -79 4 -92 6 -99 16 -5 6 -8 5 -8 -4 0 -11 -3 -11 -15 -1 -11 9 -15 9
-15 1 0 -7 -5 -9 -12 -4 -20 12 -58 11 -58 -1 0 -7 -3 -7 -8 1 -4 6 -23 10
-42 9 -19 -1 -41 2 -47 7 -9 6 -13 5 -13 -2 0 -9 -5 -9 -21 0 -13 7 -19 7 -15
1 3 -6 2 -13 -4 -17 -5 -3 -10 0 -10 8 0 15 -46 18 -68 4 -8 -5 -11 -4 -10 4
3 13 -22 17 -145 21 -42 2 -77 0 -77 -3 0 -12 -35 -4 -46 10 -9 11 -13 11 -19
1 -6 -10 -9 -9 -16 1 -8 12 -10 12 -18 0 -6 -9 -10 -10 -13 -1 -2 7 -39 13
-108 15 -58 2 -105 4 -105 5 0 1 -31 4 -70 6 -73 5 -110 10 -110 14 0 8 -52 5
-57 -4 -5 -6 -8 -7 -8 -1 0 6 -28 10 -63 10 -34 0 -68 4 -74 9 -9 5 -13 4 -13
-4 0 -10 -3 -10 -15 0 -12 10 -15 10 -15 -1 0 -12 -2 -12 -9 0 -5 8 -16 11
-25 8 -9 -4 -16 -3 -16 1 0 4 -32 8 -70 9 -47 1 -70 -3 -70 -10 0 -8 -3 -9 -8
-1 -9 13 -42 26 -42 16 0 -9 -53 -7 -68 2 -6 3 -12 1 -14 -5 -3 -8 -8 -7 -18
2 -8 8 -28 15 -45 16 -16 0 -54 3 -83 5 -30 2 -52 -1 -52 -7 0 -6 -3 -5 -8 1
-4 6 -33 11 -64 10 -32 -1 -58 3 -58 8 0 4 -7 3 -15 -4 -8 -7 -15 -8 -15 -3 0
6 -11 9 -25 8 -14 -2 -27 0 -29 4 -3 4 -20 6 -38 5 -18 -1 -39 3 -47 9 -12 10
-13 9 -6 -2 6 -11 3 -13 -13 -9 -15 4 -20 2 -16 -5 3 -7 -2 -3 -10 7 -9 11
-16 14 -16 7 0 -7 -4 -9 -10 -6 -5 3 -11 1 -11 -4 -1 -6 -2 -17 -3 -23 -1 -7
3 -19 8 -27 9 -12 8 -13 -3 -6 -11 6 -13 4 -8 -8 4 -12 1 -17 -11 -17 -16 -1
-16 -1 1 -11 13 -8 15 -15 7 -28 -5 -10 -7 -21 -3 -24 3 -4 0 -13 -7 -22 -10
-12 -10 -15 0 -15 9 0 9 -4 2 -12 -5 -7 -9 -39 -8 -71 0 -31 -1 -57 -4 -57 -3
0 -4 -24 -4 -52 1 -29 -1 -57 -4 -63 -7 -12 -13 -81 -15 -187 -1 -43 -5 -78
-8 -78 -8 0 -5 -32 5 -48 4 -6 4 -12 -1 -12 -7 0 -12 -32 -16 -115 -1 -16 -6
-36 -11 -44 -5 -8 -4 -16 5 -22 9 -6 10 -12 4 -16 -6 -5 -11 -42 -10 -85 0
-43 -4 -78 -8 -78 -5 0 -5 -4 -2 -10 3 -5 0 -10 -7 -10 -10 0 -10 -2 0 -9 18
-11 18 -12 3 -38 -8 -16 -8 -23 -1 -23 6 0 8 -5 3 -12 -8 -14 -8 -18 -14 -143
-1 -44 -8 -83 -13 -87 -7 -5 -5 -8 4 -8 13 0 13 -1 0 -10 -10 -6 -11 -10 -3
-10 9 0 10 -7 3 -25 -6 -16 -6 -26 1 -31 7 -4 7 -10 0 -18 -7 -9 -7 -17 2 -26
9 -10 9 -11 0 -6 -9 5 -13 -2 -14 -21 -4 -116 -8 -155 -13 -160 -3 -3 -1 -12
5 -20 9 -10 8 -13 -1 -13 -9 0 -9 -4 1 -17 8 -9 9 -14 3 -10 -7 4 -11 -8 -12
-35 -1 -23 -4 -44 -7 -46 -3 -3 1 -12 8 -20 10 -13 9 -14 -2 -7 -11 6 -13 2
-7 -19 5 -20 3 -26 -5 -21 -8 5 -8 1 1 -15 8 -15 8 -20 1 -16 -13 9 -14 4 -1
-28 5 -15 5 -28 0 -31 -5 -3 -7 -19 -5 -35 3 -19 0 -30 -8 -30 -7 0 -6 -4 3
-10 13 -9 13 -10 0 -10 -13 0 -13 -1 0 -10 11 -7 11 -10 2 -10 -9 0 -10 -5 -3
-18 6 -11 6 -24 -1 -35 -5 -10 -7 -25 -4 -33 3 -8 2 -14 -2 -14 -4 0 -8 -42
-9 -92 -1 -51 -2 -95 -3 -98 -1 -3 -1 -18 0 -34 1 -19 -2 -26 -10 -21 -9 6 -9
2 -1 -13 8 -15 8 -22 -2 -25 -9 -4 -9 -6 1 -6 8 -1 10 -6 5 -13 -11 -19 -13
-35 -17 -138 -3 -52 -5 -95 -6 -95 -8 0 -5 -93 4 -104 8 -11 8 -13 -1 -7 -9 5
-13 -2 -15 -26 0 -18 -2 -44 -2 -58 -1 -14 -5 -31 -9 -37 -5 -7 -4 -13 0 -13
9 0 10 -40 1 -56 -2 -5 -4 -26 -3 -46 1 -21 -3 -38 -9 -38 -6 0 -4 -5 4 -10 8
-5 11 -10 5 -10 -10 0 -13 -28 -17 -172 -2 -49 -7 -88 -12 -88 -5 0 -3 -6 3
-13 6 -8 9 -16 6 -18 -2 -3 -6 -25 -9 -50 -2 -24 -5 -44 -6 -44 -1 0 -4 -25
-5 -55 -4 -74 -12 -173 -15 -185 -1 -5 -1 -12 0 -15 7 -18 7 -40 0 -40 -9 0
-8 -19 3 -37 4 -6 2 -15 -4 -18 -5 -4 -8 -13 -5 -21 3 -8 2 -14 -2 -14 -4 0
-7 -19 -6 -42 1 -24 -4 -46 -10 -50 -7 -5 -7 -8 -1 -8 12 0 12 -40 0 -60 -6
-9 -4 -11 6 -5 11 7 12 6 3 -6 -6 -8 -10 -33 -9 -56 1 -27 -3 -40 -9 -35 -6 3
-5 -2 3 -11 7 -10 9 -17 3 -17 -12 0 -11 -18 2 -39 7 -10 6 -12 -4 -6 -10 6
-12 4 -7 -7 3 -9 0 -21 -6 -27 -8 -8 -8 -11 2 -11 7 0 9 -5 4 -12 -7 -12 -15
-164 -13 -241 0 -21 -3 -26 -12 -21 -10 6 -11 5 -1 -8 7 -8 10 -18 6 -22 -4
-4 -9 -28 -10 -54 -2 -26 -4 -70 -6 -97 -2 -28 -6 -56 -10 -62 -4 -6 -3 -14 3
-18 7 -4 7 -12 0 -25 -7 -13 -6 -20 3 -23 9 -4 8 -6 -2 -6 -11 -1 -11 -4 -1
-16 8 -9 8 -15 2 -15 -6 0 -11 -8 -10 -17 0 -41 -10 -175 -15 -179 -2 -3 -1
-20 3 -39 5 -22 4 -33 -2 -29 -12 8 -6 -29 7 -38 6 -5 5 -8 -2 -8 -7 0 -10 -7
-7 -15 4 -8 1 -15 -6 -15 -10 0 -10 -3 0 -15 9 -10 9 -15 1 -15 -6 0 -11 -5
-11 -11 0 -5 5 -7 11 -3 6 3 3 -5 -6 -20 -11 -17 -13 -26 -6 -26 7 0 9 -5 5
-12 -8 -12 -11 -55 -15 -193 -1 -38 -7 -73 -13 -77 -8 -5 -7 -8 2 -8 8 0 10
-5 6 -12 -12 -19 -12 -48 0 -48 6 0 5 -4 -3 -9 -9 -6 -10 -10 -2 -16 9 -5 9
-10 1 -20 -7 -8 -9 -19 -5 -25 3 -5 3 -10 -2 -10 -4 0 -8 -30 -7 -68 0 -37 -4
-77 -8 -90 -5 -16 -5 -21 3 -16 7 4 7 -2 -1 -16 -7 -14 -13 -69 -14 -137 0
-62 -4 -113 -7 -113 -3 0 -5 -15 -4 -32 1 -18 -3 -39 -9 -47 -8 -11 -8 -13 1
-7 7 4 13 2 13 -3 0 -6 -4 -11 -9 -11 -10 0 -6 -63 5 -81 4 -7 3 -9 -3 -6 -14
9 -23 -27 -12 -44 4 -7 4 -18 0 -24 -4 -5 -8 -38 -7 -73 1 -35 -3 -62 -9 -62
-5 0 -3 -5 5 -10 13 -9 13 -10 0 -10 -13 0 -13 -1 0 -10 10 -6 11 -10 3 -10
-7 0 -13 -5 -13 -11 0 -5 6 -7 13 -3 9 6 8 3 -1 -8 -8 -9 -13 -25 -12 -35 1
-10 1 -21 0 -25 -1 -5 -4 -12 -5 -18 -1 -5 -3 -11 -4 -12 -8 -11 -4 -168 4
-168 6 0 5 -3 -1 -8 -6 -4 -10 -17 -9 -30 1 -12 -1 -22 -5 -22 -3 0 -6 -19 -7
-42 -1 -24 -4 -83 -8 -133 -4 -49 -8 -115 -8 -147 -1 -31 -5 -54 -9 -51 -5 2
-8 -1 -8 -6 0 -6 6 -11 13 -11 7 0 8 -3 2 -8 -5 -4 -10 -27 -10 -52 0 -25 -2
-49 -5 -55 -8 -18 -7 -70 2 -82 5 -6 5 -14 -1 -17 -5 -3 -8 -17 -6 -31 1 -14
-2 -25 -7 -25 -5 0 -4 -9 2 -20 8 -15 8 -20 -1 -20 -8 0 -7 -5 2 -17 12 -14
12 -16 0 -9 -9 6 -12 5 -9 -5 3 -8 1 -22 -4 -32 -6 -12 -6 -23 1 -30 5 -7 6
-19 2 -26 -5 -7 -6 -22 -4 -32 3 -11 0 -19 -7 -19 -10 0 -10 -3 0 -15 10 -12
10 -15 0 -15 -10 0 -10 -3 0 -15 7 -8 8 -15 3 -15 -5 0 -9 -27 -8 -60 1 -33
-2 -60 -5 -60 -9 0 -5 -45 6 -61 4 -7 3 -10 -3 -6 -12 7 -13 -4 -16 -115 -1
-43 -5 -78 -8 -78 -10 0 -5 -34 6 -43 6 -4 4 -11 -5 -18 -11 -8 -12 -12 -3
-15 8 -4 9 -13 4 -27 -4 -12 -6 -28 -3 -36 3 -8 0 -11 -7 -7 -7 5 -9 1 -5 -8
3 -9 1 -16 -5 -16 -9 0 -9 -5 -1 -20 6 -11 7 -20 3 -20 -4 0 -9 -26 -10 -58
-1 -31 -2 -93 -4 -137 -1 -44 -4 -84 -7 -90 -10 -16 -8 -49 3 -57 6 -5 6 -8
-2 -8 -8 0 -12 -23 -13 -67 -1 -114 -5 -148 -15 -155 -6 -5 -5 -8 3 -8 8 0 10
-5 5 -12 -4 -7 -9 -24 -11 -36 -2 -17 1 -22 10 -16 10 6 10 4 0 -9 -8 -9 -11
-21 -7 -27 3 -5 3 -10 -2 -10 -4 0 -7 -21 -7 -47 1 -27 -3 -54 -9 -60 -6 -9
-6 -13 2 -13 8 0 10 -8 6 -19 -12 -40 -14 -61 -3 -61 6 0 5 -7 -3 -17 -12 -15
-12 -16 1 -8 12 7 13 6 3 -6 -7 -9 -11 -25 -8 -37 2 -12 -1 -22 -7 -22 -7 0
-6 -5 1 -14 8 -10 9 -16 1 -21 -6 -3 -8 -10 -5 -15 3 -5 1 -11 -5 -15 -7 -4
-7 -12 0 -25 7 -13 7 -21 0 -25 -7 -4 -7 -12 0 -24 5 -10 6 -21 3 -25 -4 -3
-8 -34 -9 -69 -2 -34 -6 -78 -9 -97 -4 -19 -8 -71 -11 -115 -2 -44 -6 -103 -7
-130 -2 -28 -6 -55 -10 -62 -4 -6 -1 -14 5 -16 9 -4 9 -6 -1 -6 -11 -1 -10 -5
5 -16 12 -9 13 -13 4 -10 -18 6 -22 -17 -24 -142 0 -40 -4 -73 -7 -73 -3 0 -5
-15 -4 -33 0 -17 -3 -38 -8 -44 -7 -9 -4 -13 7 -13 10 0 14 -5 11 -10 -4 -6
-3 -10 2 -9 22 4 34 -2 27 -13 -6 -10 -4 -10 8 0 10 8 17 9 20 3 1 -5 27 -11
56 -12 29 -2 52 -7 52 -13 0 -7 3 -8 8 -1 4 6 15 11 25 11 14 2 15 -1 6 -12
-10 -12 -8 -13 7 -7 10 3 22 11 26 17 5 7 8 5 8 -4 0 -9 8 -16 18 -17 21 -1
153 -13 202 -19 19 -2 64 -6 100 -9 36 -3 76 -8 90 -11 14 -3 45 -7 70 -10 70
-7 121 -13 165 -19 22 -3 63 -7 90 -9 28 -2 50 -5 50 -6 0 -1 18 -4 40 -5 22
-2 52 -6 68 -9 59 -13 85 -16 152 -22 38 -3 72 -7 76 -10 4 -2 27 -5 53 -5 25
-1 46 -5 46 -8 0 -4 15 -7 33 -7 48 -2 155 -12 212 -21 28 -5 67 -8 88 -8 20
0 37 -2 37 -6 0 -3 6 -6 13 -6 81 -4 213 -16 220 -20 8 -5 47 -9 174 -16 29
-2 56 -6 59 -10 4 -3 15 -2 25 4 11 5 19 6 19 1 0 -4 15 -8 33 -7 17 1 39 -2
48 -6 9 -5 21 -3 27 3 9 9 12 9 12 0 0 -14 42 -12 52 3 5 6 8 5 8 -2 0 -8 14
-12 38 -11 22 0 44 -2 50 -6 8 -4 12 0 12 11 0 15 2 14 15 -5 13 -18 19 -20
35 -10 14 9 22 9 36 -3 11 -9 15 -9 10 -1 -4 6 -2 12 3 12 6 0 11 -6 11 -12 0
-9 4 -8 10 2 8 13 10 13 10 1 0 -11 4 -9 15 5 13 16 14 16 9 1 -5 -13 -2 -16
10 -11 10 4 16 1 16 -7 0 -7 3 -9 6 -6 4 4 1 13 -6 22 -16 20 -6 19 14 -1 9
-8 16 -11 16 -5 0 6 5 11 11 11 6 0 8 -8 5 -18 -6 -16 -5 -16 8 1 16 20 35 19
53 -3 11 -13 12 -12 6 4 -4 13 -3 17 5 12 6 -3 13 -2 17 4 3 5 11 10 16 10 6
0 7 -5 3 -12 -4 -7 -3 -8 5 -4 9 6 9 11 0 22 -6 7 -15 11 -20 8 -5 -3 -6 2 -3
10 5 14 8 14 21 1 13 -13 17 -13 33 7 10 13 15 27 12 33 -4 5 -7 19 -7 31 -1
16 4 20 19 16 14 -4 17 -2 11 7 -4 7 4 5 19 -4 14 -10 26 -14 26 -11 0 4 9 2
20 -4 17 -9 19 -8 13 7 -3 10 -3 15 2 11 4 -4 16 -3 26 2 12 7 20 7 24 0 5 -8
11 -7 20 0 8 7 19 9 24 5 7 -3 8 0 5 9 -3 9 -1 16 5 16 6 0 11 -4 11 -10 0 -5
5 -10 11 -10 5 0 8 4 5 9 -7 10 37 18 72 13 12 -2 20 -7 17 -12 -10 -17 13
-19 26 -3 10 12 10 14 2 9 -7 -4 -13 -4 -13 1 0 4 80 8 178 8 97 0 181 2 185
4 5 2 52 5 105 7 54 2 126 7 162 10 36 3 92 7 125 9 33 2 89 6 125 9 36 3 97
8 135 11 39 3 93 8 120 10 28 2 64 6 80 9 17 2 62 7 100 11 39 3 81 8 95 10
14 2 51 6 84 10 105 12 120 14 226 30 58 8 119 17 135 19 100 13 416 75 550
107 50 11 97 22 105 24 28 5 105 26 120 32 8 3 20 7 25 8 6 0 17 4 25 7 8 4
35 11 60 17 66 14 194 54 200 62 3 3 23 9 45 13 22 5 44 11 50 14 5 4 12 7 15
8 3 0 19 6 35 13 17 7 59 23 95 37 36 14 88 37 117 50 28 13 57 24 62 24 6 0
11 5 11 10 0 6 5 10 11 10 12 0 180 81 189 91 3 3 26 16 52 28 27 13 50 27 54
32 3 5 14 9 24 9 10 0 20 4 22 8 6 14 64 51 91 57 15 4 27 11 27 15 0 11 68
50 86 50 8 0 12 5 9 10 -3 6 1 10 9 10 9 0 16 3 16 8 0 7 65 39 65 31 0 -2 8
3 17 11 9 8 14 19 11 23 -3 5 4 4 16 -2 24 -13 29 -23 7 -15 -18 7 -27 -8 -15
-26 8 -13 10 -13 18 -1 5 8 23 15 39 16 18 1 39 12 55 29 17 18 27 23 30 14 3
-9 9 -7 22 7 9 11 13 13 9 5 -7 -12 -5 -13 8 -3 8 7 18 10 21 6 4 -3 15 1 24
9 19 16 83 41 83 32 0 -3 6 1 14 8 8 7 12 16 9 20 -2 4 3 5 13 1 13 -5 15 -2
10 18 -3 13 -3 18 0 11 3 -6 11 -9 16 -6 7 5 8 2 3 -5 -5 -8 3 -7 23 3 16 8
32 13 34 10 3 -2 11 3 19 13 12 14 12 16 0 8 -9 -5 -12 -4 -7 3 4 6 14 8 23 5
12 -5 14 -3 8 8 -8 12 -6 12 8 0 14 -11 18 -11 23 3 3 9 10 13 15 10 5 -3 12
2 15 10 3 9 10 13 16 10 5 -3 19 2 30 13 12 10 18 12 13 4 -5 -9 0 -8 17 3 14
9 28 13 33 9 4 -5 5 -2 1 5 -4 7 -1 12 9 12 9 0 14 4 10 9 -3 6 4 8 15 6 11
-2 20 0 20 6 0 5 3 8 8 7 4 -1 20 2 35 7 19 5 26 12 23 22 -3 8 -2 12 3 8 5
-3 11 -2 14 2 2 5 2 2 0 -6 -3 -11 3 -9 18 5 13 11 19 13 14 4 -5 -8 4 -5 19
8 16 12 32 20 36 17 4 -3 11 2 14 11 4 10 14 14 25 11 15 -4 18 -1 13 12 -5
13 -3 14 10 3 13 -10 17 -10 22 4 4 10 13 14 26 11 11 -3 18 -2 15 3 -7 11 25
26 63 29 7 0 10 6 7 11 -3 6 3 10 14 10 11 0 23 5 26 10 4 6 11 8 16 5 5 -4 9
-2 9 3 0 5 14 12 31 16 17 3 28 9 25 14 -2 4 7 9 22 10 14 1 29 8 34 15 4 6 8
8 8 2 0 -5 5 -2 11 7 5 10 16 15 24 12 8 -4 15 -2 15 4 0 6 14 13 30 17 17 4
30 13 30 20 0 8 7 11 20 8 11 -3 20 0 20 6 0 6 7 11 15 11 28 0 66 23 61 37
-3 8 -2 12 3 8 5 -3 11 -2 14 2 2 5 2 2 1 -5 -2 -6 1 -12 6 -12 6 0 10 7 10
15 0 8 5 15 11 15 5 0 7 -5 3 -12 -5 -7 -3 -8 5 -4 7 5 10 14 7 22 -3 8 0 11
9 7 8 -3 12 -10 9 -17 -3 -6 1 -3 9 6 8 10 17 15 20 11 7 -6 11 12 8 30 -1 5
3 6 9 2 6 -3 7 -12 3 -18 -5 -9 -3 -9 8 -1 8 6 26 14 42 18 15 3 27 13 27 21
0 9 6 12 17 8 12 -5 14 -3 8 8 -6 11 -5 12 5 2 11 -10 16 -9 27 5 9 11 12 11
7 2 -6 -11 -2 -10 13 3 11 9 23 14 26 10 4 -3 7 -1 7 5 0 7 6 11 13 10 6 -2
11 3 9 11 -3 12 0 12 12 1 9 -7 16 -8 16 -2 0 5 11 13 25 16 14 4 25 11 25 16
0 5 7 6 17 3 11 -4 14 -3 9 5 -5 8 -1 10 10 5 13 -5 16 -3 11 10 -4 12 -2 14
10 10 11 -5 14 -3 8 6 -6 10 -3 11 15 1 15 -8 20 -8 16 -1 -4 6 -2 11 4 11 6
0 9 4 5 9 -3 6 3 8 14 6 11 -2 25 3 31 10 6 8 18 11 25 9 7 -3 24 2 37 10 14
9 28 13 32 9 4 -4 9 3 13 16 4 17 8 19 14 9 6 -9 9 -9 9 -1 0 6 9 10 20 8 11
-2 18 0 16 4 -6 8 24 25 62 36 12 4 20 10 17 15 -3 5 3 7 14 5 11 -2 22 3 25
11 3 8 12 14 21 14 8 0 15 5 15 10 0 6 5 10 11 10 5 0 7 -6 3 -12 -5 -9 -2 -9
9 1 9 7 17 10 17 5 0 -5 7 -1 15 10 8 10 19 15 26 10 8 -5 11 -2 7 8 -4 8 0
15 8 15 7 0 10 -5 7 -10 -3 -6 -1 -7 5 -3 7 4 12 15 13 24 0 11 2 13 6 4 4
-10 8 -10 21 0 13 11 14 11 7 -2 -8 -13 -7 -13 11 0 10 8 30 23 43 35 14 11
21 14 16 5 -7 -12 -6 -13 7 -3 8 7 17 11 20 8 3 -3 11 1 18 10 7 8 23 15 36
15 13 0 23 3 23 8 -1 4 -1 14 0 22 1 12 3 13 10 1 7 -11 13 -10 34 4 15 9 32
13 39 9 7 -4 10 -4 6 1 -8 9 53 45 65 38 9 -5 58 32 51 39 -2 3 7 3 21 1 14
-3 25 -1 25 3 0 5 9 15 21 22 12 8 18 9 15 3 -4 -7 -1 -8 8 -5 9 3 13 11 10
16 -4 6 -1 9 7 6 15 -5 75 17 98 35 7 6 19 12 27 13 7 1 21 9 30 18 14 15 22
18 40 15 4 0 10 4 14 11 4 6 17 12 28 13 12 1 22 5 22 10 0 5 8 6 18 2 13 -5
14 -3 5 6 -6 6 -9 18 -6 26 4 11 8 10 19 -4 11 -14 13 -15 9 -2 -5 12 2 16 27
18 18 1 39 3 46 3 11 1 16 12 13 31 0 4 4 7 10 7 5 0 7 5 4 10 -3 6 -2 10 4
10 5 0 8 11 7 25 -2 13 0 22 4 20 5 -3 13 23 19 58 6 34 14 73 17 87 12 49 31
186 39 270 2 30 7 66 10 80 3 14 7 52 11 85 3 33 8 76 11 95 3 19 7 58 8 85 2
28 4 50 5 50 2 0 18 173 23 255 1 14 7 28 12 32 6 5 5 8 -4 8 -9 0 -10 4 -4
13 6 6 9 27 8 45 -1 17 3 32 9 32 6 0 4 5 -4 10 -9 6 -11 10 -3 10 7 0 10 7 6
17 -4 11 -3 14 5 9 8 -5 10 -2 6 8 -3 9 -11 13 -18 9 -6 -4 -6 0 2 9 7 9 12
20 11 24 -5 32 2 74 13 68 7 -5 8 -3 3 7 -10 16 -13 79 -4 79 3 0 5 20 4 45
-1 24 2 42 7 39 5 -3 5 -10 2 -16 -4 -7 -2 -8 5 -4 6 4 9 12 5 17 -3 5 0 16 6
24 8 9 8 15 2 15 -6 0 -13 -6 -16 -12 -3 -7 -4 -4 -3 7 2 11 9 19 16 17 7 -1
10 2 6 8 -3 6 -11 8 -16 5 -5 -4 -9 -1 -9 4 0 6 3 11 8 11 4 0 15 15 25 33
l17 32 -25 -30 -26 -30 10 27 c7 18 7 29 0 33 -5 4 -7 11 -3 16 8 14 26 0 18
-14 -4 -7 -4 -9 1 -5 4 4 9 21 10 37 2 23 -1 28 -14 24 -12 -5 -13 -3 -5 6 6
7 19 13 28 15 9 1 16 5 16 9 0 4 0 10 0 13 0 4 -6 1 -14 -5 -11 -9 -16 -9 -22
1 -4 7 -4 10 1 6 8 -8 40 20 41 36 0 6 -5 17 -10 25 -8 11 -8 13 2 7 9 -5 12
3 13 31 1 21 1 44 0 52 -2 7 2 11 7 7 5 -3 9 1 9 9 0 8 -5 11 -11 8 -6 -4 -5
1 3 10 12 16 9 21 -12 18 -4 -1 0 10 9 24 9 14 14 32 10 40 -3 9 -2 13 4 10 6
-3 10 -3 11 2 0 4 2 18 3 31 2 13 -1 25 -6 28 -5 3 0 14 12 24 17 15 18 19 5
24 -12 4 -13 10 -6 24 6 11 6 24 -2 37 -9 18 -9 19 6 6 10 -8 20 -11 24 -7 3
3 1 6 -6 6 -7 0 -9 5 -6 10 3 6 1 10 -4 10 -6 0 -11 5 -11 11 0 5 4 8 8 5 12
-7 12 26 0 41 -6 7 -4 14 3 19 8 5 9 3 4 -6 -5 -9 -4 -11 4 -6 9 6 9 11 -1 23
-10 12 -9 17 5 24 9 6 17 15 17 21 0 7 -4 7 -14 -1 -11 -9 -12 -6 -8 14 2 15
9 22 16 18 6 -4 4 2 -4 12 -9 11 -10 16 -2 11 6 -4 12 -3 12 3 0 5 -8 12 -17
14 -15 4 -15 5 2 6 17 1 17 3 5 11 -13 8 -13 11 -1 22 8 7 11 8 8 2 -3 -6 1
-11 10 -11 12 0 11 5 -7 19 -20 16 -19 22 2 19 4 0 5 6 2 14 -4 8 -10 13 -14
10 -5 -3 -7 3 -5 12 2 10 4 22 4 26 1 5 6 5 12 1 7 -4 7 2 -1 17 -10 18 -10
24 2 33 13 10 13 13 2 24 -8 7 -14 18 -14 25 0 8 3 8 9 -1 7 -11 9 -11 14 2 4
9 1 16 -6 16 -7 0 -8 3 -2 8 13 9 15 52 3 52 -5 0 -6 5 -3 10 4 6 10 8 14 6
13 -8 6 31 -10 50 -9 12 -10 15 -1 10 9 -5 12 1 10 24 -1 17 -6 34 -10 36 -4
3 -5 11 -2 19 4 8 11 12 18 8 6 -4 5 1 -3 10 -9 12 -10 17 -2 17 7 0 10 4 6 9
-10 17 -13 71 -4 77 5 3 5 13 0 22 -10 20 -3 45 10 36 5 -3 9 0 9 5 0 6 -8 11
-17 12 -11 0 -13 3 -5 6 6 2 9 9 6 14 -3 6 0 16 6 24 10 12 10 15 0 15 -7 0
-10 6 -7 14 3 7 0 19 -6 26 -9 10 -9 11 1 6 7 -5 12 -1 12 9 0 10 5 14 13 10
6 -4 4 0 -5 8 -14 11 -15 16 -5 27 10 10 9 11 -3 5 -12 -7 -13 -6 -3 6 10 12
10 18 1 27 -9 9 -7 16 6 31 11 13 14 21 6 26 -5 3 -8 11 -4 16 10 16 12 59 3
53 -5 -3 -9 0 -9 5 0 6 5 11 11 11 8 0 7 6 -2 17 -9 10 -9 14 -2 10 9 -6 11 2
8 28 -4 26 -2 34 7 29 7 -5 8 -3 2 7 -12 20 -14 39 -2 39 5 0 2 7 -6 16 -12
12 -13 20 -6 35 6 10 7 19 3 19 -4 0 -1 5 7 10 10 6 11 10 3 10 -7 0 -13 5
-13 11 0 5 6 7 13 3 9 -6 9 -4 -1 8 -10 13 -10 17 0 20 9 4 10 9 2 19 -5 8 -9
20 -8 27 1 6 2 17 3 23 0 5 6 7 12 3 8 -4 8 0 0 15 -7 11 -8 21 -4 21 5 0 7
19 5 41 -4 33 -2 40 9 33 11 -6 12 -5 3 7 -12 16 -12 29 0 48 6 9 5 12 -2 7
-11 -7 -11 39 1 50 3 4 2 15 -4 25 -7 13 -6 19 1 19 7 0 8 6 1 19 -6 10 -7 21
-4 25 12 11 10 160 -1 175 -9 12 -8 13 3 6 11 -6 13 -3 7 18 -4 16 -1 27 7 30
9 4 9 6 0 6 -7 1 -13 6 -13 12 0 6 7 8 17 5 16 -6 16 -6 0 11 -9 10 -13 24 -8
31 4 6 6 35 5 62 -2 28 1 48 5 45 12 -7 8 29 -4 37 -6 5 -6 8 1 8 6 0 10 12 9
28 -1 15 2 35 7 44 4 9 4 19 0 22 -5 3 -6 25 -2 49 3 24 5 58 4 75 -1 18 2 35
8 38 7 4 7 9 -1 13 -7 5 -8 18 -3 37 5 16 8 59 8 97 -1 37 1 67 4 67 3 0 6 87
7 193 1 105 5 235 8 287 3 52 7 138 10 190 2 52 4 95 5 95 4 0 16 273 23 535
2 47 6 91 10 98 5 7 3 12 -3 12 -6 0 -8 5 -4 11 3 6 8 59 10 117 4 106 10 250
19 432 9 190 10 280 3 280 -5 0 -8 7 -8 15 0 8 -7 15 -16 15 -14 0 -15 -2 -3
-17 13 -17 13 -17 -5 -3 -11 8 -21 14 -23 13 -1 -2 -3 0 -3 5 0 4 6 7 13 7 17
0 15 27 -2 33 -8 3 -11 0 -7 -7 4 -6 2 -11 -3 -11 -6 0 -11 5 -11 11 0 7 -12
10 -30 7 -16 -3 -30 -2 -30 2 0 3 -20 5 -45 4 -25 -1 -45 2 -45 8 0 5 -5 6
-12 2 -7 -4 -24 -9 -37 -10 -19 -2 -22 -1 -11 6 10 6 4 9 -20 8 -19 -1 -38 -6
-42 -12 -5 -7 -8 -6 -8 4 0 12 -16 15 -80 15 -44 0 -80 3 -80 6 0 3 -7 6 -15
6 -8 0 -15 -5 -15 -11 0 -6 -5 -4 -10 4 -9 13 -10 13 -10 0 0 -12 -2 -12 -9
-1 -6 9 -10 10 -16 2 -5 -9 -10 -9 -20 -1 -7 6 -47 12 -89 13 -42 1 -76 4 -76
8 0 3 -27 5 -61 5 -33 -1 -62 1 -64 4 -2 3 -22 5 -44 3 -26 -1 -41 2 -41 10 0
7 -4 6 -10 -3 -9 -13 -11 -13 -20 0 -9 13 -10 13 -10 0 0 -10 -3 -11 -8 -4 -4
7 -35 11 -75 10 -38 -1 -71 3 -74 7 -3 4 -11 3 -18 -3 -10 -8 -14 -7 -18 2 -4
10 -8 10 -16 -2 -7 -10 -11 -11 -11 -2 0 6 -7 12 -16 12 -9 0 -12 -5 -8 -12 5
-10 4 -10 -6 -1 -7 6 -19 9 -26 6 -8 -3 -14 0 -14 7 0 10 -3 10 -14 1 -10 -9
-16 -9 -21 -1 -5 8 -11 7 -23 -2 -13 -11 -14 -11 -7 1 6 11 2 13 -19 7 -17 -4
-25 -3 -22 3 4 6 -4 7 -24 1 -18 -5 -32 -5 -36 1 -3 5 -10 7 -15 4 -5 -4 -9
-1 -9 5 0 6 -5 8 -11 5 -17 -11 -59 -13 -65 -3 -4 6 -10 5 -15 -3 -7 -11 -9
-11 -9 1 0 13 -1 13 -10 0 -8 -12 -11 -13 -19 -1 -5 8 -11 9 -15 3 -4 -7 -15
-6 -34 4 -17 9 -28 10 -31 3 -1 -5 -9 -2 -15 7 -10 13 -15 14 -21 4 -6 -9 -4
-11 5 -5 8 5 11 4 6 -3 -4 -8 -16 -7 -40 3 -25 11 -36 11 -44 3 -7 -7 -12 -8
-12 -2 0 6 -28 10 -62 11 -114 1 -177 6 -173 13 5 9 -32 6 -41 -3 -4 -4 -12
-3 -19 3 -6 5 -24 8 -40 6 -17 -1 -42 1 -57 5 -17 5 -29 3 -32 -4 -3 -9 -5 -9
-5 0 -1 7 -8 10 -16 7 -8 -3 -28 -2 -43 4 -18 6 -35 6 -45 0 -12 -6 -17 -5
-17 3 0 9 -3 9 -14 0 -11 -9 -15 -9 -18 1 -4 10 -9 10 -23 -2 -11 -9 -16 -10
-11 -2 8 13 9 13 -74 17 -30 1 -57 3 -60 5 -3 1 -9 1 -15 0 -32 -7 -65 -6 -65
2 0 6 -6 6 -14 -1 -11 -9 -15 -9 -19 1 -4 10 -6 10 -6 0 -1 -10 -5 -9 -17 3
-14 13 -19 14 -25 3 -7 -10 -9 -10 -9 2 0 13 -1 13 -10 0 -8 -12 -10 -12 -10
-1 0 10 -3 11 -14 2 -11 -9 -16 -9 -22 0 -5 8 -3 9 6 4 9 -5 11 -4 6 4 -5 7
-12 9 -19 3 -14 -10 -57 -9 -74 1 -8 5 -13 3 -13 -5 0 -8 -3 -9 -8 -3 -10 14
-46 19 -37 6 3 -7 0 -8 -9 -5 -9 3 -13 11 -9 18 5 8 3 8 -8 0 -8 -6 -21 -10
-29 -9 -8 2 -26 4 -40 6 -14 2 -28 9 -32 14 -5 6 -8 6 -8 -1 0 -6 -10 -10 -22
-8 -13 1 -23 3 -23 4 0 2 -41 4 -92 5 -50 2 -96 6 -102 10 -6 3 -11 2 -11 -4
0 -6 -12 -6 -35 0 -19 6 -40 7 -45 4 -6 -3 -10 -3 -10 2 0 7 -44 12 -160 17
-19 1 -41 5 -49 10 -10 6 -12 5 -7 -2 4 -7 1 -12 -8 -12 -8 0 -17 4 -20 9 -7
11 -54 5 -72 -10 -12 -10 -13 -9 -9 3 4 9 0 15 -10 15 -8 0 -15 -4 -15 -9 0
-5 -5 -6 -10 -3 -6 4 -7 12 -3 18 5 9 3 9 -8 1 -8 -7 -22 -8 -34 -3 -29 11
-47 11 -39 -2 4 -8 1 -8 -12 -1 -11 5 -27 8 -36 7 -10 -2 -18 2 -18 8 0 8 -3
7 -9 -2 -5 -8 -11 -9 -15 -3 -4 7 -17 7 -36 2 -17 -5 -28 -5 -25 -1 2 5 -15 9
-38 10 -87 3 -112 6 -119 16 -5 6 -8 5 -8 -3 0 -8 -5 -10 -12 -6 -7 5 -40 9
-73 11 -33 2 -66 5 -72 8 -7 2 -13 -1 -13 -8 0 -7 -3 -8 -8 -2 -4 6 -31 10
-59 10 -29 0 -53 2 -53 6 0 3 -23 5 -50 5 -28 -1 -50 1 -50 4 0 3 -13 5 -30 5
-16 0 -30 -4 -30 -8 0 -5 -4 -6 -9 -2 -5 3 -7 27 -4 53 15 128 3 234 -37 327
l-19 44 30 56 c16 30 43 81 60 113 17 31 47 87 67 123 l35 66 36 -10 c85 -23
217 -7 269 34 28 21 83 96 80 106 -1 5 10 22 26 38 50 53 59 81 53 164 -8 135
-90 262 -242 377 -77 59 -220 129 -278 136 -14 2 -29 7 -33 11 -4 3 -14 2 -23
-3 -10 -5 -23 -5 -31 0 -9 5 -19 5 -27 -2 -10 -8 -13 -7 -13 3 0 11 -2 11 -10
-1 -8 -13 -10 -13 -10 0 0 11 -3 11 -12 2 -15 -15 -32 -16 -23 -2 7 11 2 13
-8 4z m38 -24 c3 -5 1 -10 -4 -10 -6 0 -11 5 -11 10 0 6 2 10 4 10 3 0 8 -4
11 -10z m65 1 c0 -14 -26 -20 -41 -9 -11 8 -10 9 4 4 9 -3 17 -1 17 4 0 6 5
10 10 10 6 0 10 -4 10 -9z m-143 -16 c0 -8 -4 -12 -9 -9 -5 3 -6 10 -3 15 9
13 12 11 12 -6z m52 12 c-2 -1 -12 -9 -22 -16 -15 -12 -17 -12 -11 3 3 9 13
16 22 16 8 0 13 -1 11 -3z m156 -7 c-3 -5 -12 -10 -18 -10 -7 0 -6 4 3 10 19
12 23 12 15 0z m-155 -25 c-7 -8 -17 -15 -23 -15 -6 0 -2 7 9 15 25 19 30 19
14 0z m60 -7 c0 -6 -6 -5 -15 2 -8 7 -15 14 -15 16 0 2 7 1 15 -2 8 -4 15 -11
15 -16z m100 6 c0 -8 -19 -13 -24 -6 -3 5 1 9 9 9 8 0 15 -2 15 -3z m-395
-184 c3 -5 1 -10 -4 -10 -6 0 -11 5 -11 10 0 6 2 10 4 10 3 0 8 -4 11 -10z
m-28 -15 c0 -8 -4 -12 -9 -9 -5 3 -6 10 -3 15 9 13 12 11 12 -6z m-87 -519 c0
-2 -8 -10 -17 -17 -16 -13 -17 -12 -4 4 13 16 21 21 21 13z m-103 -131 c0 -8
-4 -12 -9 -9 -5 3 -6 10 -3 15 9 13 12 11 12 -6z m-271 -107 c4 4 3 0 -4 -9
-6 -9 -10 -18 -7 -21 3 -2 -2 -5 -10 -5 -10 0 -12 4 -6 10 7 7 7 17 0 31 -9
19 -9 19 4 4 8 -10 18 -14 23 -10z m-42 -4 c3 -8 2 -12 -4 -9 -6 3 -10 10 -10
16 0 14 7 11 14 -7z m-31 -11 c-4 -10 -2 -14 5 -9 6 3 13 2 16 -3 4 -5 -1 -8
-9 -7 -20 3 -28 13 -20 25 10 17 15 13 8 -6z m-19 -19 c3 -8 2 -12 -4 -9 -6 3
-10 10 -10 16 0 14 7 11 14 -7z m-18 -15 c3 -5 -2 -6 -11 -3 -11 5 -14 2 -9
-10 3 -9 1 -16 -5 -16 -6 0 -10 5 -8 11 1 6 -3 13 -10 16 -8 3 -11 -3 -8 -17
2 -11 0 -18 -5 -15 -5 3 -19 -4 -30 -15 -12 -12 -25 -18 -28 -14 -4 3 -1 9 7
12 11 4 11 6 0 13 -10 6 -11 9 -1 9 6 0 20 8 31 19 19 19 67 25 77 10z m-4962
-177 c3 -5 -1 -9 -9 -9 -8 0 -12 4 -9 9 3 4 7 8 9 8 2 0 6 -4 9 -8z m6826
-9602 c0 -5 -4 -10 -10 -10 -5 0 -10 5 -10 10 0 6 5 10 10 10 6 0 10 -4 10
-10z m-169 -33 c-10 -9 -11 -8 -5 6 3 10 9 15 12 12 3 -3 0 -11 -7 -18z m133
2 c-3 -5 -10 -7 -15 -3 -5 3 -7 10 -3 15 3 5 10 7 15 3 5 -3 7 -10 3 -15z
m-164 -54 c0 -12 -19 -12 -23 0 -4 9 -1 12 9 8 7 -3 14 -7 14 -8z m-4466 -973
c3 -5 -1 -9 -9 -9 -8 0 -12 4 -9 9 3 4 7 8 9 8 2 0 6 -4 9 -8z m61 -2 c3 -5 1
-10 -4 -10 -6 0 -11 5 -11 10 0 6 2 10 4 10 3 0 8 -4 11 -10z m85 -2 c0 -4 -4
-9 -10 -9 -13 -2 -29 -6 -32 -9 -2 -1 -11 -3 -21 -5 -15 -3 -16 -1 -6 11 6 7
15 12 19 9 5 -3 11 -2 14 3 7 11 36 11 36 0z m30 0 c0 6 5 12 11 12 8 0 8 -5
-1 -15 -13 -16 -30 -11 -30 8 0 7 4 6 10 -3 6 -10 10 -11 10 -2z m-198 -37 c8
11 9 10 5 -3 -3 -9 1 -22 9 -29 11 -9 12 -15 3 -25 -6 -8 -17 -14 -23 -13 -7
0 -6 2 2 6 6 2 12 12 11 21 0 11 -2 12 -6 5 -2 -7 -9 -13 -14 -13 -6 0 -8 4
-4 9 3 5 1 12 -4 16 -6 3 -7 13 -4 22 5 12 8 13 11 4 4 -11 6 -11 14 0z m-32
-41 c0 -5 -4 -10 -10 -10 -5 0 -10 5 -10 10 0 6 5 10 10 10 6 0 10 -4 10 -10z
m-30 -50 c5 9 9 8 13 -3 3 -8 0 -14 -6 -13 -20 3 -37 17 -37 29 0 7 5 4 11 -7
8 -13 13 -15 19 -6z"/>
<path d="M11740 5746 c0 -2 7 -7 16 -10 8 -3 12 -2 9 4 -6 10 -25 14 -25 6z"/>
<path d="M11685 5180 c-3 -5 -1 -10 4 -10 6 0 11 5 11 10 0 6 -2 10 -4 10 -3
0 -8 -4 -11 -10z"/>
<path d="M3877 579 c7 -7 15 -10 18 -7 3 3 -2 9 -12 12 -14 6 -15 5 -6 -5z"/>
<path d="M3959 573 c-12 -16 -12 -17 2 -6 9 7 20 9 24 5 5 -4 5 -1 1 6 -9 16
-11 15 -27 -5z"/>
<path d="M4007 579 c7 -7 15 -10 18 -7 3 3 -2 9 -12 12 -14 6 -15 5 -6 -5z"/>
<path d="M3605 534 c-19 -14 -19 -14 5 -11 14 3 32 0 40 -7 8 -6 6 -1 -4 12
-11 12 -20 22 -20 22 -1 0 -10 -7 -21 -16z"/>
<path d="M3610 500 c0 -5 5 -10 10 -10 6 0 10 5 10 10 0 6 -4 10 -10 10 -5 0
-10 -4 -10 -10z"/>
<path d="M3595 470 c-3 -5 -3 -10 1 -10 4 0 -1 -7 -12 -16 -18 -15 -18 -15 0
-6 11 5 21 17 22 26 3 18 -2 21 -11 6z"/>
</g>
</svg>
